<svg width="69" height="70" viewBox="0 0 69 70" fill="none" xmlns="http://www.w3.org/2000/svg">
<path d="M28.0312 26.25C26.8404 26.25 25.875 27.2294 25.875 28.4375V41.5625C25.875 42.7706 26.8404 43.75 28.0312 43.75H40.9688C42.1596 43.75 43.125 42.7706 43.125 41.5625V28.4375C43.125 27.2294 42.1596 26.25 40.9688 26.25H28.0312Z" fill="white"/>
<path d="M23.7188 2.1875C23.7188 0.979377 22.7534 0 21.5625 0C20.3716 0 19.4062 0.979377 19.4062 2.1875V8.75C13.4519 8.75 8.625 13.6469 8.625 19.6875H2.15625C0.965386 19.6875 0 20.6669 0 21.875C0 23.0831 0.965386 24.0625 2.15625 24.0625H8.625V28.4375H2.15625C0.965386 28.4375 0 29.4169 0 30.625C0 31.8331 0.965386 32.8125 2.15625 32.8125H8.625V37.1875H2.15625C0.965386 37.1875 0 38.1669 0 39.375C0 40.5831 0.965386 41.5625 2.15625 41.5625H8.625V45.9375H2.15625C0.965386 45.9375 0 46.9169 0 48.125C0 49.3331 0.965386 50.3125 2.15625 50.3125H8.625C8.625 56.3531 13.4519 61.25 19.4062 61.25V67.8125C19.4062 69.0206 20.3716 70 21.5625 70C22.7534 70 23.7188 69.0206 23.7188 67.8125V61.25H28.0312V67.8125C28.0312 69.0206 28.9966 70 30.1875 70C31.3784 70 32.3438 69.0206 32.3438 67.8125V61.25H36.6562V67.8125C36.6562 69.0206 37.6216 70 38.8125 70C40.0034 70 40.9688 69.0206 40.9688 67.8125V61.25H45.2812V67.8125C45.2812 69.0206 46.2466 70 47.4375 70C48.6284 70 49.5938 69.0206 49.5938 67.8125V61.25C55.5481 61.25 60.375 56.3531 60.375 50.3125H66.8438C68.0346 50.3125 69 49.3331 69 48.125C69 46.9169 68.0346 45.9375 66.8438 45.9375H60.375V41.5625H66.8438C68.0346 41.5625 69 40.5831 69 39.375C69 38.1669 68.0346 37.1875 66.8438 37.1875H60.375V32.8125H66.8438C68.0346 32.8125 69 31.8331 69 30.625C69 29.4169 68.0346 28.4375 66.8438 28.4375H60.375V24.0625H66.8438C68.0346 24.0625 69 23.0831 69 21.875C69 20.6669 68.0346 19.6875 66.8438 19.6875H60.375C60.375 13.6469 55.5481 8.75 49.5938 8.75V2.1875C49.5938 0.979377 48.6284 0 47.4375 0C46.2466 0 45.2812 0.979377 45.2812 2.1875V8.75H40.9688V2.1875C40.9688 0.979377 40.0034 0 38.8125 0C37.6216 0 36.6562 0.979377 36.6562 2.1875V8.75H32.3438V2.1875C32.3438 0.979377 31.3784 0 30.1875 0C28.9966 0 28.0312 0.979377 28.0312 2.1875V8.75H23.7188V2.1875ZM28.0312 21.875H40.9688C44.5413 21.875 47.4375 24.8131 47.4375 28.4375V41.5625C47.4375 45.1869 44.5413 48.125 40.9688 48.125H28.0312C24.4587 48.125 21.5625 45.1869 21.5625 41.5625V28.4375C21.5625 24.8131 24.4587 21.875 28.0312 21.875Z" fill="white"/>
</svg>
