<svg width="38" height="38" viewBox="0 0 38 38" fill="none" xmlns="http://www.w3.org/2000/svg">
<g clip-path="url(#clip0_1_107)">
<g clip-path="url(#clip1_1_107)">
<path d="M35.1705 22.2384L34.169 21.2412L29.8167 23.2928L21.6546 18.4467L21.8507 18.3313L29.8167 13.6029L34.169 15.6544L35.1705 13.4114L32.3667 12.0891L35.4013 10.2867L34.2013 8.14984L31.1667 9.9522L31.4552 6.79528L29.0645 6.56446L28.6168 11.4637L20.6485 16.1944L20.4546 16.3098V6.61993L24.3569 3.76995L22.9676 1.75764L20.4546 3.59226V-0.0100098H18.0523V3.59226L15.5369 1.75764L14.15 3.76995L18.0523 6.61993V16.3098L17.8562 16.1944L9.89009 11.4637L9.44241 6.56446L7.05172 6.79528L7.34013 9.9522L4.30554 8.14984L3.10323 10.2867L6.14016 12.0891L3.33638 13.4114L4.3379 15.6544L8.69012 13.6029L16.6562 18.3313L16.8523 18.4467L18.0523 19.34V30.2758L14.15 33.1234L15.5369 35.1379L18.0523 33.3011V36.9056H20.4546V33.3011L22.9676 35.1379L24.3569 33.1234L20.4546 30.2758V20.5859L28.6168 25.4297L29.0645 30.3288L31.4552 30.1003L31.1667 26.9435L34.2013 28.7457L35.4013 26.6065L32.3667 24.8065L35.1705 22.2384Z" fill="white"/>
<path fill-rule="evenodd" clip-rule="evenodd" d="M9.26624 37.4363C9.09181 37.4363 8.94355 37.3753 8.82145 37.2532C8.69935 37.1311 8.6383 36.9828 8.6383 36.8084V23.3078L4.68755 26.3428C4.58289 26.43 4.45207 26.4736 4.29509 26.4736C4.08578 26.4736 3.92007 26.3864 3.79798 26.212L2.67293 24.7468C2.58571 24.6247 2.54211 24.5026 2.54211 24.3805C2.54211 24.1712 2.63804 23.9968 2.82991 23.8573L8.69063 19.3047C8.8825 19.1826 9.10053 19.1216 9.34473 19.1216H11.6995C11.8739 19.1216 12.0222 19.1826 12.1443 19.3047C12.2664 19.4268 12.3274 19.5751 12.3274 19.7495V36.8084C12.3274 36.9828 12.2664 37.1311 12.1443 37.2532C12.0222 37.3753 11.8739 37.4363 11.6995 37.4363H9.26624Z" fill="#CDC5B1"/>
</g>
</g>
<defs>
<clipPath id="clip0_1_107">
<rect width="38" height="38" fill="white" transform="translate(0 -0.0100098)"/>
</clipPath>
<clipPath id="clip1_1_107">
<rect width="33.6393" height="38" fill="white" transform="translate(2.18033 -0.0100098)"/>
</clipPath>
</defs>
</svg>
