<svg width="71" height="71" viewBox="0 0 71 71" fill="none" xmlns="http://www.w3.org/2000/svg">
<path d="M40.8214 28.7292L63 16L42.75 32.6458C42.75 32.6458 43.7143 35.5833 44.6786 37.5417C45.6429 39.5 47.5714 42.4375 47.5714 44.3958C47.5714 46.3542 47.5714 47.3333 46.6071 48.3125C45.6429 49.2917 44.6786 48.3125 43.7143 49.2917C42.75 50.2708 41.7857 50.2675 39.8571 48.3092C37.9286 46.3508 30.2143 43.4133 31.1786 44.3958L36 53.6979L42.75 67C30 68 20.5 67 9 53.2083C9 53.2083 11.7324 42.7634 13.8214 38.5208C15.9105 34.2783 19.6071 26.7708 25.3929 24.8125C31.1786 22.8542 35.0357 24.8125 35.0357 24.8125C35.0357 24.8125 35.0357 23.83 38.8929 22.8542C40.7069 22.3952 41.4545 22.1514 41.7375 22.0218L41.7857 21.875C41.7857 21.875 42.0563 21.8759 41.7375 22.0218L39.8571 27.75L40.8214 28.7292Z" fill="white" stroke="white" stroke-width="0.1"/>
<circle cx="35.5" cy="35.5" r="33" stroke="white" stroke-width="5"/>
</svg>
