<svg width="70" height="70" viewBox="0 0 70 70" fill="none" xmlns="http://www.w3.org/2000/svg">
<path d="M42.4794 26.9758C45.0857 29.586 50.0154 28.8807 53.4904 25.4004C56.9654 21.9202 57.6697 16.9829 55.0634 14.3727C52.4572 11.7625 47.5274 12.4678 44.0524 15.9481C40.5774 19.4283 39.8732 24.3656 42.4794 26.9758Z" fill="white"/>
<path d="M68.8701 14.4267C67.2902 21.1085 63.0577 30.2211 53.012 41.5103L51.9703 52.0003C51.6914 54.5143 50.5664 56.8584 48.7805 58.6471L38.4036 69.0397C37.7266 69.7178 36.6922 69.8859 35.8358 69.457C34.9794 69.0282 34.493 68.0986 34.6284 67.1493L35.8083 58.8774C35.9825 57.6562 35.7484 56.2935 35.2332 54.7124C34.9026 53.6979 34.537 52.8014 34.1495 51.8514C34.0323 51.5642 33.9132 51.2721 33.7924 50.9704C30.2414 50.1117 26.9194 48.0857 24.2466 45.4088C21.5733 42.7315 19.5501 39.4035 18.693 35.8463C18.39 35.7249 18.0968 35.6051 17.8086 35.4873C16.8623 35.1006 15.9693 34.7357 14.9572 34.4051C13.3783 33.8895 12.0177 33.6551 10.7985 33.8295L2.5392 35.0112C1.5913 35.1469 0.66314 34.6598 0.234925 33.802C-0.19329 32.9443 -0.0254725 31.9084 0.651597 31.2303L11.0285 20.8376C12.8144 19.049 15.155 17.9224 17.6652 17.643L17.6916 17.6402L28.146 16.6033C39.2225 6.75571 48.2922 2.53559 54.9842 0.905326C58.8632 -0.0396486 61.911 -0.105882 64.0434 0.0882721C65.1076 0.185167 65.9385 0.346409 66.5258 0.49253C66.8194 0.56556 67.0518 0.634742 67.2219 0.690093C68.0261 0.951796 68.4366 1.25828 68.7519 1.97162L68.754 1.97644C68.7989 2.07911 68.8394 2.18409 68.8776 2.28938C68.939 2.45824 69.0156 2.68821 69.0972 2.97842C69.2605 3.55916 69.4431 4.37971 69.5624 5.43274C69.8017 7.54349 69.7837 10.5622 68.8701 14.4267ZM47.8416 46.9842L48.0147 46.8106L47.547 51.5201C47.3774 53.024 46.7032 54.4259 45.6345 55.4963L39.9766 61.1628L40.2127 59.5075C40.5274 57.3017 40.0647 55.1772 39.4628 53.3301C39.2563 52.6962 39.0066 52.026 38.7482 51.3647C41.9622 51.0832 45.1183 49.7117 47.8416 46.9842ZM22.6736 21.7779C19.9506 24.5051 18.5812 27.6657 18.2998 30.8842C17.6389 30.6255 16.9692 30.3754 16.3365 30.1688C14.4924 29.5666 12.3713 29.1034 10.1693 29.4184L8.5166 29.6549L14.1745 23.9884C15.2432 22.9181 16.6428 22.2429 18.1443 22.073L22.8448 21.6068L22.6736 21.7779ZM63.6406 4.52586C61.988 4.37539 59.4319 4.40762 56.0358 5.23496C49.2489 6.88835 38.9766 11.7517 25.8196 24.9287C23.1209 27.6316 22.341 30.768 22.8304 33.8621C23.2959 36.8046 24.9341 39.7958 27.3926 42.258C29.8505 44.7196 32.8362 46.3601 35.7734 46.8268C38.8636 47.3178 41.9962 46.5369 44.6956 43.8334C58.1057 30.403 62.952 20.1189 64.5407 13.3999C65.3352 10.0397 65.3234 7.53839 65.1417 5.93527C65.0859 5.4427 65.0137 5.03238 64.9429 4.70553C64.5984 4.63961 64.1637 4.57348 63.6406 4.52586Z" fill="white"/>
<path d="M30.5291 52.8737C27.7131 51.3833 25.0317 49.3459 22.6736 46.9843C20.1711 44.478 18.0333 41.6069 16.5259 38.5973C11.7263 42.9175 7.9664 60.6117 8.51663 61.1628C9.06186 61.7088 25.6577 57.2586 30.5291 52.8737Z" fill="white"/>
</svg>
