<svg width="38" height="38" viewBox="0 0 38 38" fill="none" xmlns="http://www.w3.org/2000/svg">
<g clip-path="url(#clip0_1_78)">
<g clip-path="url(#clip1_1_78)">
<path d="M19.5162 16.9384C19.1059 16.5899 18.465 16.5899 18.0547 16.9384L6.88516 26.3541C6.28368 26.9556 6.41297 28.344 7.64403 28.344H11.0955V36.8209C11.0955 37.4618 11.6239 37.9902 12.2647 37.9902H25.3624C26.0032 37.9902 26.5316 37.4618 26.5316 36.8771V28.4002H29.9831C30.9387 28.4002 31.5233 27.1916 30.6857 26.3541L19.5162 16.9384ZM25.4186 26.0618C24.7778 26.0618 24.2494 26.5902 24.2494 27.231V35.7079H13.434V27.231C13.434 26.5902 12.9056 26.0618 12.2647 26.0618H10.8032L18.8136 19.2769L26.8801 26.0618H25.4186Z" fill="#CDC5B1"/>
<path d="M31.4446 10.4458H6.23871C5.59788 10.4458 5.06948 10.9742 5.06948 11.615C5.06948 12.2559 5.59788 12.7843 6.23871 12.7843H31.3828C32.0236 12.7843 32.6082 12.2559 32.6082 11.615C32.6082 10.9742 32.0855 10.4458 31.4446 10.4458Z" fill="white"/>
<path fill-rule="evenodd" clip-rule="evenodd" d="M5.91267 7.2978C5.82086 7.2978 5.74281 7.26566 5.67854 7.20139C5.61427 7.13712 5.58214 7.05908 5.58214 6.96726V0.46679C5.58214 0.365793 5.61427 0.285456 5.67854 0.225776C5.74281 0.166096 5.82086 0.136257 5.91267 0.136257H7.00067C7.10167 0.136257 7.18201 0.166096 7.24169 0.225776C7.30137 0.285456 7.33121 0.365793 7.33121 0.46679V0.935044C7.82701 0.310702 8.49266 -0.00146484 9.32817 -0.00146484C10.3473 -0.00146484 11.0589 0.407106 11.4629 1.22426C11.6832 0.857 11.9954 0.560901 12.3994 0.335954C12.8034 0.111007 13.2395 -0.00146484 13.7077 -0.00146484C14.4606 -0.00146484 15.0758 0.255613 15.5532 0.769778C16.0306 1.28394 16.2694 2.03222 16.2694 3.01464V6.96726C16.2694 7.05908 16.2395 7.13712 16.1798 7.20139C16.1202 7.26566 16.0398 7.2978 15.9388 7.2978H14.7957C14.7039 7.2978 14.6259 7.26566 14.5616 7.20139C14.4973 7.13712 14.4652 7.05908 14.4652 6.96726V3.12482C14.4652 2.54639 14.3435 2.12864 14.1002 1.87155C13.8569 1.61447 13.5379 1.48593 13.1431 1.48593C12.785 1.48593 12.4797 1.61677 12.2272 1.87844C11.9747 2.14011 11.8485 2.55557 11.8485 3.12482V6.96726C11.8485 7.05908 11.8186 7.13712 11.759 7.20139C11.6993 7.26566 11.6189 7.2978 11.518 7.2978H10.3611C10.2693 7.2978 10.1912 7.26566 10.127 7.20139C10.0627 7.13712 10.0306 7.05908 10.0306 6.96726V3.12482C10.0306 2.55557 9.90661 2.14011 9.65871 1.87844C9.41081 1.61677 9.09405 1.48593 8.70843 1.48593C8.35035 1.48593 8.04507 1.61677 7.79257 1.87844C7.54008 2.14011 7.41384 2.55557 7.41384 3.12482V6.96726C7.41384 7.05908 7.384 7.13712 7.32432 7.20139C7.26464 7.26566 7.1843 7.2978 7.08331 7.2978H5.91267ZM20.098 7.43552C19.6298 7.43552 19.2005 7.34141 18.8103 7.15319C18.4201 6.96497 18.1125 6.71018 17.8876 6.38883C17.6626 6.06748 17.5502 5.714 17.5502 5.32837C17.5502 4.70403 17.8027 4.19905 18.3076 3.81343C18.8126 3.42781 19.5058 3.16614 20.3872 3.02842L22.274 2.75297V2.46376C22.274 2.06895 22.173 1.77056 21.971 1.56856C21.769 1.36657 21.4477 1.26558 21.007 1.26558C20.704 1.26558 20.4607 1.32066 20.2771 1.43084C20.0934 1.54102 19.9442 1.65349 19.8295 1.76826L19.6022 1.9955C19.5655 2.10568 19.4966 2.16077 19.3956 2.16077H18.3214C18.2388 2.16077 18.1676 2.13322 18.1079 2.07814C18.0483 2.02305 18.0184 1.9496 18.0184 1.85778C18.0276 1.62824 18.1401 1.36887 18.3558 1.07965C18.5716 0.790435 18.9044 0.537947 19.3543 0.322182C19.8042 0.106416 20.3597 -0.00146484 21.0208 -0.00146484C22.1042 -0.00146484 22.8938 0.241841 23.3896 0.728461C23.8854 1.21508 24.1333 1.85319 24.1333 2.6428V6.96726C24.1333 7.05908 24.1034 7.13712 24.0438 7.20139C23.9841 7.26566 23.9037 7.2978 23.8027 7.2978H22.6597C22.5678 7.2978 22.4898 7.26566 22.4255 7.20139C22.3613 7.13712 22.3291 7.05908 22.3291 6.96726V6.43015C22.1271 6.72396 21.8425 6.96497 21.4752 7.15319C21.108 7.34141 20.6489 7.43552 20.098 7.43552ZM20.5663 6.11339C21.0713 6.11339 21.4844 5.94812 21.8058 5.61759C22.1271 5.28705 22.2878 4.80962 22.2878 4.18528V3.90984L20.9106 4.13019C19.8547 4.29546 19.3268 4.64894 19.3268 5.19065C19.3268 5.48446 19.4484 5.7117 19.6917 5.87237C19.9351 6.03305 20.2266 6.11339 20.5663 6.11339ZM25.5931 7.2978C25.5105 7.2978 25.4393 7.26796 25.3797 7.20828C25.32 7.1486 25.2901 7.07744 25.2901 6.99481C25.2901 6.91217 25.3177 6.83413 25.3728 6.76068L27.7278 3.62062L25.5518 0.673372C25.4967 0.59992 25.4692 0.521879 25.4692 0.439245C25.4692 0.356612 25.499 0.285456 25.5587 0.225776C25.6184 0.166096 25.6895 0.136257 25.7722 0.136257H26.9841C27.0851 0.136257 27.1609 0.156915 27.2114 0.198232C27.2619 0.239549 27.3147 0.296932 27.3697 0.370384L28.9122 2.42244L30.4409 0.370384C30.4501 0.361203 30.4846 0.319887 30.5442 0.246435C30.6039 0.172983 30.698 0.136257 30.8266 0.136257H31.9972C32.0798 0.136257 32.1487 0.166096 32.2038 0.225776C32.2589 0.285456 32.2864 0.352021 32.2864 0.425473C32.2864 0.517288 32.2589 0.59992 32.2038 0.673372L30.0002 3.63439L32.369 6.76068C32.4241 6.83413 32.4517 6.91217 32.4517 6.99481C32.4517 7.07744 32.4218 7.1486 32.3622 7.20828C32.3025 7.26796 32.2313 7.2978 32.1487 7.2978H30.8816C30.7347 7.2978 30.6108 7.22434 30.5098 7.07744L28.8571 4.90143L27.1907 7.07744C27.0897 7.22434 26.9658 7.2978 26.8189 7.2978H25.5931Z" fill="white"/>
</g>
</g>
<defs>
<clipPath id="clip0_1_78">
<rect width="38" height="38" fill="white" transform="translate(0 -0.0100098)"/>
</clipPath>
<clipPath id="clip1_1_78">
<rect width="27.8667" height="38" fill="white" transform="translate(5.06667 -0.0100098)"/>
</clipPath>
</defs>
</svg>
