<svg width="38" height="38" viewBox="0 0 38 38" fill="none" xmlns="http://www.w3.org/2000/svg">
<g clip-path="url(#clip0_1_91)">
<g clip-path="url(#clip1_1_91)">
<path d="M27.9142 29.1186C27.8115 28.4057 27.5391 27.7477 27.1394 27.1868C28.7826 25.4543 29.891 23.2123 30.1979 20.7262C29.4323 21.1477 28.6485 21.3123 27.898 21.2045L26.4071 20.9903L27.2296 19.7317C27.2344 19.7241 27.9449 18.5992 28.1712 16.8774C28.4104 15.0571 28.0441 13.2737 27.0815 11.5591C26.6359 12.179 26.1175 12.6741 25.5446 13.022C24.5492 13.6263 23.4286 13.7605 22.3887 13.3996C20.8929 12.8806 19.7333 11.3938 19.2073 9.32086C18.7374 7.46927 18.7645 5.18919 19.2789 2.65564C15.5905 3.99256 13.1509 6.96783 12.0164 11.5217C11.0242 15.5039 11.4453 19.2468 11.4497 19.2842L11.6749 21.2088L10.0042 20.2208C8.88512 19.5585 8.00609 18.8448 7.35767 18.232C7.3236 18.5923 7.30643 18.9548 7.30643 19.3182C7.30643 22.3623 8.50264 25.1327 10.4507 27.1869C10.051 27.7478 9.77872 28.4058 9.67597 29.1186C7.03698 26.6742 5.38333 23.1854 5.38333 19.3182C5.38333 18.157 5.53351 17.0023 5.82983 15.8861L6.36893 13.8553L7.55248 15.5897C7.56875 15.613 8.18925 16.4921 9.43178 17.4941C9.41474 15.9141 9.52919 13.5782 10.1368 11.1125C11.5824 5.24694 15.126 1.52193 20.3847 0.3403L21.9437 -0.0100098L21.5236 1.52787C20.5335 5.15208 20.7311 7.51016 21.0711 8.8502C21.4357 10.2869 22.1462 11.2848 23.0204 11.5882C24.1559 11.9825 25.3777 11.0979 26.1328 9.33459L26.7874 7.80591L27.7865 9.13638C30.1675 12.3073 30.339 15.2876 30.0635 17.2293C29.9839 17.7901 29.8635 18.2984 29.7286 18.7442C30.07 18.4816 30.3374 18.1934 30.4629 18.0305L32.0402 15.9843L32.1851 18.5614C32.1996 18.8186 32.2069 19.0733 32.2069 19.3182C32.2069 23.1854 30.5532 26.6742 27.9142 29.1186ZM14.3325 25.3233H14.0637C13.4706 25.3233 12.9047 25.4398 12.3876 25.6511C12.4929 23.2544 13.235 20.2221 15.9233 18.2067C17.6903 16.8821 19.4723 16.6467 19.5473 16.6373L21.7713 16.3593L20.4404 18.1583C19.6017 19.2919 19.6718 20.5384 20.0171 21.3269C20.2669 21.8973 20.6297 22.1806 20.8784 22.2083C21.192 22.2439 21.5075 21.885 21.6674 21.6683L22.2955 20.8171L23.084 21.5231C24.2774 22.5919 25.0227 24.0667 25.1838 25.6435C24.6718 25.437 24.1124 25.3233 23.5265 25.3233H23.1878C23.0514 24.7089 22.7867 24.1286 22.4114 23.6219C21.7194 24.1242 21.0592 24.1581 20.6647 24.1143C19.6606 24.0024 18.7598 23.2473 18.255 22.0947C17.9163 21.3212 17.736 20.2824 17.9393 19.1861C16.4679 19.9717 14.6128 21.6774 14.3325 25.3233Z" fill="white"/>
<path d="M18.5716 26.8135C15.8319 26.8135 11.1951 27.3784 11.1951 29.4958C11.1951 31.6133 15.8319 32.1782 18.5716 32.1782C21.3112 32.1782 25.948 31.6133 25.948 29.4959C25.948 27.3784 21.3112 26.8135 18.5716 26.8135ZM18.5716 30.5688C15.2396 30.5688 13.3299 29.8725 12.8947 29.4959C13.3299 29.1193 15.2399 28.4229 18.5716 28.4229C21.9033 28.4229 23.813 29.1193 24.2485 29.4959C23.8132 29.8725 21.9035 30.5688 18.5716 30.5688Z" fill="#CDC5B1"/>
<path d="M24.3088 32.2589C24.3088 32.2165 24.3211 32.1863 24.326 32.1782C24.1299 32.5081 22.1953 33.2996 18.5716 33.2996C14.9478 33.2996 13.0132 32.5081 12.8171 32.1782C12.822 32.1863 12.8343 32.2165 12.8343 32.2589H11.1951C11.1951 34.1792 15.1688 34.8606 18.5716 34.8606C21.9743 34.8606 25.948 34.1792 25.948 32.2589H24.3088Z" fill="#CDC5B1"/>
<path d="M24.3088 34.9412C24.3088 34.8988 24.3211 34.8686 24.326 34.8606C24.1299 35.1905 22.1953 35.9819 18.5716 35.9819C14.9478 35.9819 13.0132 35.1905 12.8171 34.8606C12.822 34.8687 12.8343 34.8988 12.8343 34.9412H11.1951C11.1951 36.8616 15.1688 37.5429 18.5716 37.5429C21.9743 37.5429 25.948 36.8616 25.948 34.9412H24.3088Z" fill="#CDC5B1"/>
<path d="M25.948 29.4958H24.1598V35.3076H25.948V29.4958Z" fill="#CDC5B1"/>
<path d="M12.9833 29.4958H11.1951V35.3076H12.9833V29.4958Z" fill="#CDC5B1"/>
</g>
</g>
<defs>
<clipPath id="clip0_1_91">
<rect width="38" height="38" fill="white" transform="translate(0 -0.0100098)"/>
</clipPath>
<clipPath id="clip1_1_91">
<rect width="27.2333" height="38" fill="white" transform="translate(5.38333 -0.0100098)"/>
</clipPath>
</defs>
</svg>
