<svg width="38" height="38" viewBox="0 0 38 38" fill="none" xmlns="http://www.w3.org/2000/svg">
<g clip-path="url(#clip0_1_121)">
<g clip-path="url(#clip1_1_121)">
<path d="M28.2206 29.4948V26.726C31.882 24.3749 34.3129 20.2667 34.3129 15.602C34.3129 8.31835 28.3864 2.39181 21.1027 2.39181C14.5096 2.39181 9.04665 7.25071 8.06431 13.5724L13.3592 10.9255L14.434 13.074L7.22845 16.6768C7.05668 16.762 6.87297 16.8029 6.69163 16.8029C6.33615 16.8029 5.98786 16.6444 5.75372 16.3526L0.950001 10.3479L2.82583 8.84678L5.79332 12.5565C7.21406 5.40254 13.5357 -0.0100098 21.1027 -0.0100098C29.7109 -0.0100098 36.7147 6.9938 36.7147 15.602C36.7147 21.6479 33.2598 26.9025 28.2206 29.4948Z" fill="white"/>
<path d="M28.7893 18.3466C22.2607 18.3466 21.1562 15.8655 21.1463 15.8422C21.0984 15.7209 20.9801 15.6398 20.8462 15.637C20.8462 15.637 20.8434 15.637 20.8406 15.637C20.711 15.637 20.5912 15.7181 20.5391 15.8366C20.5314 15.8627 19.4029 18.3466 12.899 18.3466C12.7172 18.3466 12.5735 18.494 12.5735 18.6718V29.7897C12.5735 34.3408 20.3813 37.8178 20.7117 37.9638C20.7554 37.9829 20.7969 37.9899 20.8441 37.9899C20.8871 37.9899 20.9336 37.9829 20.9751 37.9638C21.3083 37.8178 29.1147 34.3408 29.1147 29.7897V18.6718C29.1133 18.494 28.9689 18.3466 28.7893 18.3466ZM27.3184 29.143C27.3184 32.7039 21.2055 35.4284 20.9456 35.5412C20.9139 35.5574 20.8765 35.5631 20.8434 35.5631C20.8075 35.5631 20.7744 35.5574 20.7406 35.5412C20.4835 35.4284 14.3684 32.7039 14.3684 29.143V20.4406C14.3684 20.3002 14.4818 20.1846 14.6234 20.1846C19.7156 20.1846 20.5983 18.2408 20.6067 18.2218C20.6469 18.128 20.7399 18.0645 20.842 18.0645C20.8434 18.0645 20.8462 18.0645 20.8462 18.0645C20.9505 18.0659 21.0428 18.1294 21.0801 18.226C21.0886 18.2437 21.9536 20.1846 27.0634 20.1846C27.205 20.1846 27.3177 20.3002 27.3177 20.4406L27.3184 29.143Z" fill="#CDC5B1"/>
</g>
</g>
<defs>
<clipPath id="clip0_1_121">
<rect width="38" height="38" fill="white" transform="translate(0 -0.0100098)"/>
</clipPath>
<clipPath id="clip1_1_121">
<rect width="36.1" height="38" fill="white" transform="translate(0.950001 -0.0100098)"/>
</clipPath>
</defs>
</svg>
