<svg width="81" height="81" viewBox="0 0 81 81" fill="none" xmlns="http://www.w3.org/2000/svg">
<path d="M8.43754 30.0375L38.8125 47.5875C39.4875 47.925 39.825 47.925 40.5 47.925C41.175 47.925 41.5125 47.925 42.1875 47.5875L72.5625 30.0375C73.2375 29.7 73.575 29.3625 73.9125 28.6875C74.5875 27 74.25 24.975 72.5625 23.9625L42.1875 6.4125C41.175 5.7375 39.825 5.7375 38.8125 6.4125L8.43754 23.9625C7.76254 24.3 7.42504 24.6375 7.08754 25.3125C6.41254 27 6.75004 29.025 8.43754 30.0375ZM72.5625 37.4625L71.8875 37.125L42.1875 54.3375C41.175 55.0125 39.825 55.0125 38.8125 54.3375L9.11254 37.125L8.43754 37.4625C6.75004 38.475 6.41254 40.5 7.08754 42.1875C7.42504 42.8625 7.76254 43.2 8.43754 43.5375L38.8125 61.0875C39.825 61.7625 41.175 61.7625 42.1875 61.0875L72.5625 43.5375C74.25 42.525 74.5875 40.5 73.9125 38.8125C73.575 38.1375 73.2375 37.8 72.5625 37.4625ZM72.5625 50.9625L71.8875 50.625L42.1875 67.8375C41.175 68.5125 39.825 68.5125 38.8125 67.8375L9.11254 50.625L8.43754 50.9625C6.75004 51.975 6.41254 54 7.08754 55.6875C7.42504 56.3625 7.76254 56.7 8.43754 57.0375L38.8125 74.5875C39.825 75.2625 41.175 75.2625 42.1875 74.5875L72.5625 57.0375C74.25 56.025 74.5875 54 73.9125 52.3125C73.575 51.6375 73.2375 51.3 72.5625 50.9625Z" fill="white"/>
</svg>
